HIERARCHY
ROOT pelvis
{
  OFFSET 0 100 0
  CHANNELS 6 Xposition Yposition Zposition Zrotation Xrotation Yrotation
  JOINT pelvis_right_femur
  {
    OFFSET -10.78128 -3.44521 -0.5502486
    CHANNELS 3 Zrotation Xrotation Yrotation
    JOINT right_femur_tibia
    {
      OFFSET -0.8047443 -44.0398 -0.1307829
      CHANNELS 3 Zrotation Xrotation Yrotation
      JOINT right_tibia_foot
      {
        OFFSET 3.006224 -47.83518 -5
        CHANNELS 3 Zrotation Xrotation Yrotation
        End Site
        {
          OFFSET 0 -5 15
        }
      }
    }
  }
  JOINT pelvis_left_femur
  {
    OFFSET 10.78128 -3.44521 -0.5502486
    CHANNELS 3 Zrotation Xrotation Yrotation
    JOINT left_femur_tibia
    {
      OFFSET 0.8047443 -44.0398 -0.1307829
      CHANNELS 3 Zrotation Xrotation Yrotation
      JOINT left_tibia_foot
      {
        OFFSET -4.370144 -48.10324 -4.275266
        CHANNELS 3 Zrotation Xrotation Yrotation
        End Site
        {
          OFFSET 0 -5 15
        }
      }
    }
  }
  JOINT pelvis_spine1
  {
    OFFSET 0 6.468898 -3.129235
    CHANNELS 3 Zrotation Xrotation Yrotation
    JOINT spine1
    {
      OFFSET 0 23.15396 4.99043
      CHANNELS 3 Zrotation Xrotation Yrotation
      JOINT spine2
      {
        OFFSET 0 20.79997 -5.064912
        CHANNELS 3 Zrotation Xrotation Yrotation
        JOINT neck
        {
          OFFSET 0 14.38658 9.616178
          CHANNELS 3 Zrotation Xrotation Yrotation
          End Site
          {
            OFFSET 0 20 0
          }
        }
      }
      JOINT right_manubrium
      {
        OFFSET -5.722621 16.35077 3.967754
        CHANNELS 3 Zrotation Xrotation Yrotation
        JOINT right_clavicle
        {
          OFFSET -13.16364 1.694482 -4.693211
          CHANNELS 3 Zrotation Xrotation Yrotation
          JOINT right_humerus
          {
            OFFSET -28.5034 -0.3100689 -2.792744
            CHANNELS 3 Zrotation Xrotation Yrotation
            JOINT right_radius
            {
              OFFSET -25.15693 0.02248979 -1.271978
              CHANNELS 3 Zrotation Xrotation Yrotation
              End Site
              {
                OFFSET -15 0 0
              }
            }
          }
        }
      }
      JOINT left_manubrium
      {
        OFFSET 5.722621 16.35077 3.967754
        CHANNELS 3 Zrotation Xrotation Yrotation
        JOINT left_clavicle
        {
          OFFSET 13.16364 1.694482 -4.693211
          CHANNELS 3 Zrotation Xrotation Yrotation
          JOINT left_humerus
          {
            OFFSET 29.39168 -1.063119 -2.237045
            CHANNELS 3 Zrotation Xrotation Yrotation
            JOINT left_radius
            {
              OFFSET 24.59957 -0.9528479 0.9047498
              CHANNELS 3 Zrotation Xrotation Yrotation
              End Site
              {
                OFFSET 15 -0 -0
              }
            }
          }
        }
      }
    }
  }
}
MOTION
Frames: 21
Frame Time: 0.0416666666667
0 103.5113 0 1.719387 -0.6698302 0.03422841 4.000538 -14.4916 12.22016 -0 36.84309 -0 -4.018121 -16.93347 -4.43471 -7.418263 8.789493 -20.65701 -0 5.445085 -0 20.44161 -8.96651 28.05173 -1.894732 -2.273595 5.943789 1.515143 11.33066 -6.381493 2.148699 21.65429 5.430622 3.27755 -23.93742 8.672686 6.056355 -19.3084 10.39225 85.93069 37.22773 -18.38548 -0 0 14.0185 -9.088609 10.38797 4.946592 6.486105 -21.11596 -2.750127 -91.69625 22.9577 19.95752 0 0 -17.57717 14.92968 13.44698 -0.5634272
0.4348987 103.5309 1.680236 1.115723 0.8114133 0.00844676 5.12244 -18.1155 13.13516 -0 36.62332 -0 -4.638804 -16.84764 -4.478177 -7.18903 8.943665 -20.71433 -0 6.189354 -0 20.85165 -9.954222 28.19801 -1.903218 -2.239668 5.934543 1.488495 11.37147 -6.339008 2.148319 21.65982 5.433412 3.308239 -23.8842 8.639514 6.051105 -19.29027 10.39078 85.86926 37.20676 -18.25795 -0 0 13.99764 -9.245586 10.42688 5.052831 6.495639 -21.11477 -2.786815 -91.60129 22.79571 19.82907 0 0 -17.55051 15.04632 13.32015 -0.7124401
0.7693715 103.5255 3.292948 0.9054538 1.441385 0.04284056 5.246931 -19.67249 12.90575 -0 36.63479 -0 -4.555795 -16.99071 -4.48416 -7.329213 9.662162 -21.41711 -0 5.727322 -0 18.17892 -12.6082 28.37217 -1.935423 -2.256707 5.722608 1.785754 11.13333 -6.665815 2.061559 21.52384 5.558411 3.243725 -24.32056 8.743672 6.083882 -19.18375 10.55356 86.05673 36.81662 -18.75066 -0 0 13.9299 -8.733849 10.16005 4.823104 6.391659 -21.06242 -2.551222 -91.84131 23.21027 20.03951 0 0 -17.44917 14.17179 13.68796 -0.07510206
1.021394 103.5338 4.94908 0.5084844 2.213975 0.10092 5.804627 -21.88024 12.94442 -0 36.11311 -0 -4.887451 -16.75098 -4.452126 -7.180214 10.079 -21.64797 -0 5.901872 -0 16.74253 -14.35062 28.20784 -1.95994 -2.237585 5.580364 1.953174 11.00187 -6.835343 2.000743 21.44131 5.648403 3.232182 -24.55246 8.780354 6.092333 -19.09851 10.65598 86.11139 36.5503 -18.94123 -0 0 13.87118 -8.561037 10.0223 4.789426 6.334413 -21.02418 -2.423957 -91.92031 23.34303 20.07881 0 0 -17.3593 13.68773 13.81282 0.2378561
1.18617 103.5047 6.739793 0.02503208 2.801822 0.1845896 6.365867 -24.34408 12.38216 -0 34.73556 -0 -5.474096 -15.9438 -4.217748 -6.864712 10.66299 -21.70813 -0 6.294832 -0 14.6235 -16.43872 27.56684 -1.986895 -2.223668 5.401848 2.174619 10.80269 -7.059123 1.916958 21.33727 5.771738 3.211889 -24.86142 8.835829 6.095134 -18.99519 10.78615 86.18304 36.21602 -19.2024 -0 0 13.81055 -8.314487 9.827975 4.741689 6.256494 -20.96648 -2.243573 -92.06722 23.58073 20.1974 0 0 -17.24103 12.99136 14.01218 0.7382945
1.285461 103.429 8.748939 -0.4738296 3.314773 0.2913171 6.97276 -26.80036 11.7607 -0 32.90854 -0 -6.151117 -14.80231 -3.911635 -6.455764 11.19478 -21.48671 -0 6.986989 -0 12.82586 -18.0579 26.6108 -2.00989 -2.188475 5.231701 2.371051 10.62401 -7.24717 1.833446 21.24255 5.893026 3.209161 -25.1224 8.866862 6.087693 -18.88348 10.90824 86.2168 35.89876 -19.38142 -0 0 13.73069 -8.175915 9.66717 4.769428 6.183394 -20.90994 -2.089962 -92.15733 23.73712 20.25349 0 0 -17.13309 12.36334 14.12963 1.17985
1.335167 103.2987 11.06879 -0.9836741 3.777056 0.4308831 7.585864 -29.24972 11.02504 -0 30.62388 -0 -6.888062 -13.29989 -3.530167 -5.980039 11.76057 -21.0239 -0 8.032275 -0 10.99453 -19.38807 25.26527 -2.028853 -2.139164 5.057125 2.568891 10.43653 -7.429763 1.742912 21.14922 6.020722 3.212558 -25.37446 8.885886 6.071517 -18.7591 11.03381 86.23742 35.57666 -19.53772 -0 0 13.62964 -8.079012 9.509402 4.840327 6.101192 -20.84727 -1.941573 -92.23216 23.88813 20.29842 0 0 -17.03471 11.6983 14.21725 1.664607
1.353374 103.124 13.77739 -1.458042 4.157202 0.6107845 8.14322 -31.37423 10.26073 -0 28.17732 -0 -7.649001 -11.58557 -3.109471 -5.486426 12.3193 -20.35726 -0 9.551331 -0 9.237483 -20.19941 23.59552 -2.041102 -2.067952 4.889304 2.750746 10.26619 -7.588999 1.652464 21.06363 6.142342 3.225556 -25.58862 8.881645 6.048175 -18.6227 11.15528 86.24096 35.27166 -19.64769 -0 0 13.49495 -8.057476 9.377723 4.966486 6.013523 -20.78639 -1.820943 -92.25545 23.99076 20.29024 0 0 -16.96732 11.06636 14.23731 2.13012
1.354244 102.9368 16.94003 -1.890937 4.433899 0.8377585 8.620513 -32.96877 9.49842 -0 25.82866 -0 -8.441957 -9.795575 -2.681915 -4.987087 12.84332 -19.54268 -0 11.71923 -0 7.436593 -20.41195 21.60457 -2.044996 -1.974194 4.732165 2.915154 10.11693 -7.724989 1.564087 20.98818 6.252134 3.244194 -25.76121 8.852472 6.018865 -18.47571 11.27176 86.23478 34.98972 -19.71995 -0 0 13.32252 -8.102235 9.271517 5.140274 5.915561 -20.72769 -1.734051 -92.22679 24.05719 20.23254 0 0 -16.94235 10.46283 14.19129 2.588318
1.34854 102.7922 20.59391 -2.276205 4.534385 1.102782 8.991518 -33.75059 8.750084 -0 23.89654 -0 -9.300995 -8.142204 -2.276187 -4.480823 13.23452 -18.63639 -0 14.7645 -0 5.593249 -19.86126 19.35826 -2.038782 -1.855549 4.594661 3.052748 10.00322 -7.830067 1.482724 20.92722 6.340181 3.266367 -25.87759 8.793372 5.985034 -18.32224 11.37923 86.22137 34.74229 -19.74877 -0 0 13.11014 -8.21897 9.198466 5.358758 5.806047 -20.67435 -1.693216 -92.13411 24.07913 20.11489 0 0 -16.97287 9.914402 14.06755 3.020548
1.343868 102.7671 24.73765 -2.616977 4.381602 1.374483 9.251026 -33.4945 8.024368 -0 22.62708 -0 -10.25417 -6.87843 -1.927473 -3.951508 13.32494 -17.68598 -0 18.92428 -0 3.746616 -18.4242 16.95865 -2.021348 -1.711454 4.486089 3.155403 9.935457 -7.898077 1.41251 20.88551 6.397347 3.288237 -25.92614 8.700977 5.947129 -18.16914 11.47458 86.2023 34.53679 -19.72874 -0 0 12.86311 -8.407332 9.16039 5.616799 5.681511 -20.62643 -1.707323 -91.97568 24.06101 19.94168 0 0 -17.06516 9.430686 13.86265 3.426756
1.346555 102.9468 29.31986 -2.90016 3.894114 1.593203 9.382165 -32.03552 7.303567 -0 22.08075 -0 -11.2986 -6.253429 -1.672015 -3.389961 12.86176 -16.71467 -0 24.3677 -0 2.026492 -16.06072 14.56196 -1.992225 -1.542174 4.417986 3.212505 9.924572 -7.920422 1.357844 20.86826 6.41445 3.306214 -25.89331 8.572066 5.904324 -18.02682 11.55428 86.17423 34.37854 -19.64562 -0 0 12.59554 -8.671519 9.1589 5.911438 5.539635 -20.58286 -1.783339 -91.75289 24.00523 19.72249 0 0 -17.21808 9.022919 13.57347 3.805367
1.36341 103.4005 34.23743 -3.079415 3.029655 1.682978 9.338299 -29.32552 6.541322 -0 22.00852 -0 -12.36675 -6.400618 -1.541927 -2.817745 11.53901 -15.71169 -0 31.05008 -0 0.5842446 -12.92737 12.34224 -1.951768 -1.349602 4.403287 3.212526 9.978056 -7.887292 1.322211 20.88042 6.384259 3.316992 -25.76617 8.404546 5.853458 -17.90953 11.6152 86.12727 34.26849 -19.47588 -0 0 12.33353 -9.019854 9.193568 6.243137 5.379196 -20.54008 -1.922736 -91.4748 23.91652 19.47811 0 0 -17.41942 8.694809 13.20075 4.161981
1.401456 104.1486 39.3496 -3.069223 1.818898 1.583534 9.043521 -25.4532 5.667448 -0 21.84731 -0 -13.32801 -7.200434 -1.533119 -2.299196 9.078685 -14.62692 -0 38.54726 -0 -0.4606723 -9.434252 10.46926 -1.901165 -1.138036 4.456242 3.143084 10.09828 -7.78752 1.307643 20.9253 6.303349 3.318749 -25.53331 8.198171 5.78806 -17.83581 11.65457 86.04225 34.20212 -19.18354 -0 0 12.118 -9.468602 9.263462 6.617975 5.202832 -20.49271 -2.118268 -91.15811 23.79748 19.23982 0 0 -17.64369 8.445671 12.74894 4.504361
1.464406 105.1387 44.51036 -2.778409 0.3834655 1.291405 8.450067 -20.65644 4.640212 -0 20.93726 -0 -14.03177 -8.227678 -1.572159 -1.908402 5.361692 -13.38567 -0 45.96355 -0 -1.0499 -6.185743 9.110672 -1.842464 -0.9155825 4.591293 2.992647 10.27875 -7.609933 1.313703 21.00287 6.174683 3.311998 -25.18766 7.955972 5.697484 -17.82819 11.67017 85.88918 34.1681 -18.72051 -0 0 12.00655 -10.04236 9.367075 7.048554 5.019342 -20.43371 -2.350048 -90.82942 23.64823 19.05095 0 0 -17.85099 8.268457 12.22856 4.842476
1.549069 106.2457 49.60743 -2.178398 -1.097271 0.8740098 7.615508 -15.30512 3.511436 -0 18.9086 -0 -14.37969 -8.918027 -1.533915 -1.64875 0.5458338 -11.92369 -0 52.03841 -0 -1.166191 -3.761263 8.437761 -1.778567 -0.6957355 4.821053 2.753169 10.50075 -7.345569 1.336779 21.10808 6.009735 3.300144 -24.73037 7.68598 5.567141 -17.9118 11.66025 85.62853 34.14827 -18.03138 -0 0 12.07145 -10.77059 9.501854 7.552467 4.845701 -20.35505 -2.583292 -90.52612 23.46669 18.96582 0 0 -17.98915 8.149909 11.65888 5.1862
1.647729 107.2963 54.5861 -1.364492 -2.458303 0.4339258 6.722662 -9.8345 2.438655 -0 15.96496 -0 -14.37357 -8.941668 -1.334575 -1.384985 -4.922494 -10.22717 -0 55.45608 -0 -0.8313517 -2.44153 8.572973 -1.712982 -0.4977338 5.152716 2.424148 10.73187 -6.991316 1.369944 21.23027 5.828847 3.289089 -24.17501 7.402227 5.380825 -18.11003 11.62334 85.21798 34.12028 -17.06618 -0 0 12.38891 -11.6781 9.662916 8.14735 4.706349 -20.24878 -2.770669 -90.29415 23.25146 19.04358 0 0 -18.00251 8.070739 11.06985 5.543747
1.758315 108.1021 59.44741 -0.5543071 -3.607409 0.05042437 6.01099 -4.625285 1.599933 -0 12.79233 -0 -14.09087 -8.507514 -1.012874 -0.8681853 -10.44263 -8.347577 -0 55.21156 -0 -0.1530084 -2.080143 9.486401 -1.649099 -0.3438088 5.583229 2.016897 10.92971 -6.554308 1.403861 21.3541 5.658374 3.285847 -23.54971 7.123488 5.125654 -18.43656 11.55853 84.62587 34.06301 -15.80082 -0 0 13.0168 -12.77178 9.842302 8.843205 4.628451 -20.1091 -2.861833 -90.17844 23.00435 19.3328 0 0 -17.84862 8.008183 10.49979 5.919076
1.896193 108.4922 64.23398 -0.0108906 -4.515868 -0.2542274 5.675258 0.09243642 1.070314 -0 10.162 -0 -13.60232 -8.282588 -0.6973088 0.1363668 -15.45373 -6.38259 -0 50.89127 -0 0.6525977 -2.221709 10.93069 -1.589442 -0.2527189 6.094689 1.556875 11.0523 -6.055512 1.428786 21.46243 5.524401 3.296363 -22.895 6.869063 4.798673 -18.88568 11.46678 83.84823 33.96192 -14.2592 -0 0 13.96616 -14.02865 10.02928 9.634272 4.633023 -19.93515 -2.819221 -90.20721 22.73111 19.84941 0 0 -17.5173 7.939638 9.986954 6.309947
2.098573 108.3572 69.02292 0.07186148 -5.156916 -0.5108737 5.785808 4.208358 0.7783417 -0 8.588091 -0 -12.9257 -8.937702 -0.491806 1.684655 -19.5401 -4.444881 -0 42.88392 -0 1.35762 -2.357761 12.48733 -1.535882 -0.2317303 6.65241 1.081853 11.07303 -5.530224 1.437264 21.54058 5.444702 3.323029 -22.25688 6.653133 4.412745 -19.42609 11.3534 82.92183 33.81025 -12.52647 -0 0 15.18082 -15.3902 10.21111 10.493 4.724355 -19.73277 -2.634456 -90.37749 22.44128 20.55943 0 0 -17.04006 7.844422 9.558063 6.709334
2.417242 107.7054 73.92466 -0.3267775 -5.480419 -0.7757588 6.237162 7.612445 0.596239 -0 8.283225 -0 -12.06679 -10.67716 -0.4060469 3.531354 -22.39618 -2.661233 -0 32.55795 -0 1.867995 -2.153703 13.71235 -1.491036 -0.2709776 7.207878 0.6355009 10.99332 -5.023903 1.426524 21.58078 5.422206 3.362627 -21.67773 6.480495 3.9989 -20.00289 11.23087 81.92552 33.60598 -10.74424 -0 0 16.53847 -16.76587 10.37391 11.36864 4.882137 -19.51354 -2.337227 -90.65137 22.14987 21.37944 0 0 -16.48155 7.701458 9.21999 7.111872
